# Blender 5.0.1
# www.blender.org
mtllib Arrow.mtl
o Cube
v 0.500000 1.785758 0.516483
v 0.500000 -1.786779 0.516483
v -0.500000 1.785758 0.516483
v -0.500000 -1.786779 0.516483
v 0.500000 5.239238 5.480823
v -0.500000 5.239238 5.480823
v -0.500000 3.610573 5.480823
v 0.500000 3.610573 5.480823
v 0.500000 -5.344622 5.480823
v 0.500000 -3.628859 5.480823
v -0.500000 -3.628859 5.480823
v -0.500000 -5.344622 5.480823
v 0.500000 1.278431 1.643419
v 0.500000 -1.277170 1.643419
v -0.500000 -1.277170 1.643419
v -0.500000 1.278431 1.643419
v -0.500000 2.055628 0.000000
v -0.500000 -2.052053 0.000000
v -0.500000 3.320076 5.997306
v -0.500000 6.227697 5.997305
v 0.500000 6.227697 5.997305
v 0.500000 3.320076 5.997306
v 0.500000 2.055628 0.000000
v 0.500000 -3.339623 5.997305
v 0.500000 -6.350202 5.997306
v -0.500000 -6.350202 5.997306
v -0.500000 -3.339623 5.997305
v 0.500000 -2.052053 0.000000
v 0.500000 0.987934 2.159902
v 0.500000 -0.987934 2.159902
v -0.500000 -0.987934 2.159902
v -0.500000 0.987934 2.159902
vn -0.0000 -0.0000 -1.0000
vn -0.0000 -0.0000 1.0000
vn -0.0000 0.8209 -0.5711
vn -0.0000 -0.8128 -0.5825
vn -0.0000 0.8546 -0.5194
vn -0.0000 0.8526 0.5225
vn -0.0000 -0.8546 0.5194
vn -1.0000 -0.0000 -0.0000
vn 1.0000 -0.0000 -0.0000
vn -0.0000 -0.8209 0.5711
vn -0.0000 -0.8526 -0.5225
vn -0.0000 0.8128 0.5825
vt 0.375000 0.500000
vt 0.125000 0.750000
vt 0.125000 0.500000
vt 0.875000 0.500000
vt 0.625000 0.750000
vt 0.625000 0.500000
vt 0.375000 1.000000
vt 0.375000 0.750000
vt 0.625000 1.000000
vt 0.641222 0.602452
vt 0.619941 0.694798
vt 0.593313 0.651101
vt 0.875000 0.750000
vt 0.833648 0.534767
vt 0.844976 0.682002
vt 0.433559 0.363564
vt 0.401398 0.939134
vt 0.621935 0.553469
vt 0.375000 0.250000
vt 0.427236 0.746992
vt 0.423593 0.994700
vt 0.564252 0.991737
vt 0.416000 0.729620
vt 0.604626 0.540878
vt 0.526821 0.718147
vt 0.508078 0.906185
vt 0.571179 0.744920
s 0
usemtl Material
f 23/1/1 18/2/1 17/3/1
f 20/4/2 22/5/2 21/6/2
f 20/4/3 23/6/3 17/4/3
f 24/5/2 26/7/2 25/8/2
f 25/8/4 18/7/4 28/8/4
f 32/9/2 30/5/2 29/5/2
f 16/10/5 8/11/5 13/12/5
f 27/9/6 30/5/6 31/9/6
f 22/5/7 32/13/7 29/5/7
f 6/14/1 8/11/1 7/15/1
f 3/16/8 18/7/8 4/17/8
f 6/14/8 19/13/8 20/4/8
f 5/18/9 22/5/9 8/11/9
f 6/14/8 17/19/8 3/16/8
f 5/18/9 23/6/9 21/6/9
f 9/20/9 24/5/9 25/8/9
f 12/21/8 27/9/8 11/22/8
f 9/20/9 28/8/9 2/23/9
f 12/21/8 18/7/8 26/7/8
f 1/24/9 28/8/9 23/6/9
f 14/25/9 29/5/9 30/5/9
f 15/26/8 32/13/8 16/10/8
f 10/27/9 30/5/9 24/5/9
f 11/22/8 31/9/8 15/26/8
f 8/11/9 29/5/9 13/12/9
f 7/15/8 32/13/8 19/13/8
f 1/24/10 6/14/10 3/16/10
f 4/17/2 1/24/2 3/16/2
f 14/25/1 16/10/1 13/12/1
f 11/22/11 14/25/11 10/27/11
f 9/20/1 11/22/1 10/27/1
f 9/20/12 4/17/12 12/21/12
f 23/1/1 28/8/1 18/2/1
f 20/4/2 19/13/2 22/5/2
f 20/4/3 21/6/3 23/6/3
f 24/5/2 27/9/2 26/7/2
f 25/8/4 26/7/4 18/7/4
f 32/9/2 31/9/2 30/5/2
f 16/10/5 7/15/5 8/11/5
f 27/9/6 24/5/6 30/5/6
f 22/5/7 19/13/7 32/13/7
f 6/14/1 5/18/1 8/11/1
f 3/16/8 17/19/8 18/7/8
f 6/14/8 7/15/8 19/13/8
f 5/18/9 21/6/9 22/5/9
f 6/14/8 20/4/8 17/19/8
f 5/18/9 1/24/9 23/6/9
f 9/20/9 10/27/9 24/5/9
f 12/21/8 26/7/8 27/9/8
f 9/20/9 25/8/9 28/8/9
f 12/21/8 4/17/8 18/7/8
f 1/24/9 2/23/9 28/8/9
f 14/25/9 13/12/9 29/5/9
f 15/26/8 31/9/8 32/13/8
f 10/27/9 14/25/9 30/5/9
f 11/22/8 27/9/8 31/9/8
f 8/11/9 22/5/9 29/5/9
f 7/15/8 16/10/8 32/13/8
f 1/24/10 5/18/10 6/14/10
f 4/17/2 2/23/2 1/24/2
f 14/25/1 15/26/1 16/10/1
f 11/22/11 15/26/11 14/25/11
f 9/20/1 12/21/1 11/22/1
f 9/20/12 2/23/12 4/17/12
