{
	"asset":{
		"generator":"Khronos glTF Blender I/O v4.1.63",
		"version":"2.0"
	},
	"scene":0,
	"scenes":[
		{
			"name":"Scene",
			"nodes":[
				0
			]
		}
	],
	"nodes":[
		{
			"mesh":0,
			"name":"Cube"
		}
	],
	"materials":[
		{
			"doubleSided":true,
			"name":"Material",
			"pbrMetallicRoughness":{
				"baseColorTexture":{
					"index":0
				},
				"metallicFactor":0,
				"roughnessFactor":0.5
			}
		}
	],
	"meshes":[
		{
			"name":"Cube",
			"primitives":[
				{
					"attributes":{
						"POSITION":0,
						"NORMAL":1,
						"TEXCOORD_0":2
					},
					"indices":3,
					"material":0
				}
			]
		}
	],
	"textures":[
		{
			"sampler":0,
			"source":0
		}
	],
	"images":[
		{
			"mimeType":"image/png",
			"name":"Scrap",
			"uri":"Scrap.png"
		}
	],
	"accessors":[
		{
			"bufferView":0,
			"componentType":5126,
			"count":593,
			"max":[
				1.0000001192092896,
				0.6191648244857788,
				1.0511714220046997
			],
			"min":[
				-1.152014970779419,
				-0.17026066780090332,
				-1.344123363494873
			],
			"type":"VEC3"
		},
		{
			"bufferView":1,
			"componentType":5126,
			"count":593,
			"type":"VEC3"
		},
		{
			"bufferView":2,
			"componentType":5126,
			"count":593,
			"type":"VEC2"
		},
		{
			"bufferView":3,
			"componentType":5123,
			"count":1932,
			"type":"SCALAR"
		}
	],
	"bufferViews":[
		{
			"buffer":0,
			"byteLength":7116,
			"byteOffset":0,
			"target":34962
		},
		{
			"buffer":0,
			"byteLength":7116,
			"byteOffset":7116,
			"target":34962
		},
		{
			"buffer":0,
			"byteLength":4744,
			"byteOffset":14232,
			"target":34962
		},
		{
			"buffer":0,
			"byteLength":3864,
			"byteOffset":18976,
			"target":34963
		}
	],
	"samplers":[
		{
			"magFilter":9729,
			"minFilter":9987
		}
	],
	"buffers":[
		{
			"byteLength":22840,
			"uri":"Scrap.bin"
		}
	]
}
