# Blender 4.1.1
# www.blender.org
mtllib hook.mtl
o 立方体.002
v -0.013808 0.907525 0.137864
v -0.013808 7.817039 0.137863
v -0.013808 0.907525 0.110247
v -0.013808 7.817039 0.110246
v 0.013808 0.907525 0.137864
v 0.013808 7.817039 0.137863
v 0.013808 0.907525 0.110247
v 0.013808 7.817039 0.110246
v -0.076018 0.192085 -0.210012
v -0.076018 0.700658 0.171193
v -0.076018 0.209657 -0.113149
v -0.076018 0.700658 -0.055025
v 0.076139 0.192701 -0.211363
v 0.076139 0.700658 0.171193
v 0.076139 0.209657 -0.113149
v 0.076139 0.700658 -0.055025
v -0.076018 0.086511 0.314002
v -0.076018 0.151934 0.180536
v 0.076139 0.151934 0.180536
v 0.076139 0.086511 0.314002
v -0.076018 0.463755 0.287272
v -0.076018 0.404654 0.147316
v 0.076139 0.404654 0.147316
v 0.076139 0.463755 0.287272
v -0.076018 0.079535 -0.006557
v 0.076139 0.079535 -0.006557
v 0.076139 -0.063540 -0.054925
v -0.076018 -0.063540 -0.054925
v -0.076018 0.127334 -0.072814
v 0.076139 0.127334 -0.072814
v 0.076139 0.050930 -0.168423
v -0.076018 0.051464 -0.166804
v -0.076018 -0.061532 0.155075
v -0.076018 0.078826 0.095254
v 0.076139 0.078826 0.095254
v 0.076139 -0.061532 0.155075
v -0.076018 0.252886 0.213781
v 0.076139 0.252886 0.213781
v 0.076139 0.263137 0.361540
v -0.076018 0.263137 0.361540
v -0.076018 0.608074 0.166977
v -0.076018 0.529436 0.000983
v 0.076139 0.529436 0.000983
v 0.076139 0.608074 0.166977
v -0.075504 0.347137 -0.143728
v 0.076654 0.347137 -0.143728
v -0.128099 0.877536 0.268957
v 0.128099 0.877536 0.268957
v -0.128099 1.054358 -0.040399
v 0.128099 1.054358 -0.040399
v -0.128099 0.681368 0.191975
v 0.128099 0.681368 0.191975
v -0.125105 0.874283 -0.131690
v 0.125105 0.874283 -0.131690
v -0.128099 1.057341 0.164143
v 0.128099 1.057341 0.164143
v -0.128099 0.682625 -0.070464
v 0.128099 0.682625 -0.070464
v -0.013808 0.907525 0.047514
v -0.013808 7.817039 0.047513
v -0.013808 0.907525 0.019898
v -0.013808 7.817039 0.019897
v 0.013808 0.907525 0.047514
v 0.013808 7.817039 0.047513
v 0.013808 0.907525 0.019898
v 0.013808 7.817039 0.019897
vn -1.0000 -0.0000 -0.0000
vn -0.0000 -0.0000 -1.0000
vn 1.0000 -0.0000 -0.0000
vn -0.0000 -0.0000 1.0000
vn -0.0000 -1.0000 -0.0000
vn -0.0000 1.0000 -0.0000
vn -0.0000 -0.3109 -0.9504
vn -0.0000 -0.0455 0.9990
vn -0.0000 0.2171 0.9761
vn -0.0000 -0.7317 0.6816
vn -0.0000 0.7592 -0.6508
vn -0.0000 0.3472 0.9378
vn -0.0000 -0.4012 -0.9160
vn -0.0000 0.8110 0.5851
vn -0.0100 -0.7041 -0.7101
vn -0.0073 -0.2899 -0.9570
vn -0.0000 0.4400 0.8980
vn -0.0000 1.0000 0.0070
vn -0.0000 -1.0000 0.0096
vn -0.0000 0.3128 -0.9498
vn -0.0000 -0.2599 0.9656
vn -0.0000 0.6403 0.7681
vn -0.0000 -0.7609 -0.6489
vn -1.0000 0.0036 -0.0007
vn -0.0098 0.3931 -0.9194
vn 1.0000 -0.0036 0.0006
vn -0.0000 0.9999 -0.0146
vn -0.0000 0.4522 -0.8919
vn -0.0000 -1.0000 -0.0048
vn -0.0000 -0.3653 0.9309
vn 0.9998 0.0103 -0.0165
vn -0.9999 -0.0167 0.0002
vn -0.0000 -0.3043 -0.9526
vn -0.0000 0.5036 0.8639
vn -0.0000 -0.6973 -0.7168
vn -0.0112 -0.2937 -0.9558
vn -0.0000 0.4012 -0.9160
vn 0.9999 -0.0167 0.0002
vn -0.9998 0.0103 -0.0165
vt 0.809613 0.140456
vt 0.659137 0.290931
vt 0.659137 0.140456
vt 0.809613 0.290931
vt 0.659137 0.441406
vt 0.809613 0.441406
vt 0.659137 0.591881
vt 0.809613 0.591881
vt 0.659137 0.742357
vt 0.508662 0.591881
vt 0.508662 0.441406
vt 0.960088 0.441406
vt 0.746829 0.105515
vt 0.769531 0.287133
vt 0.746829 0.287133
vt 0.746829 0.468750
vt 0.769531 0.468750
vt 0.746829 0.650367
vt 0.769531 0.650367
vt 0.746829 0.831985
vt 0.587914 0.468750
vt 0.587914 0.287133
vt 0.951149 0.468750
vt 0.678723 0.650367
vt 0.656020 0.831985
vt 0.656020 0.650367
vt 0.678723 0.468750
vt 0.656020 0.468750
vt 0.678723 0.287133
vt 0.656020 0.287133
vt 0.656020 0.105515
vt 0.724127 0.650367
vt 0.701425 0.831985
vt 0.701425 0.650367
vt 0.701425 0.468750
vt 0.724127 0.287133
vt 0.701425 0.287133
vt 0.724127 0.105515
vt 0.701425 0.105515
vt 0.610616 0.105515
vt 0.633318 0.287133
vt 0.610616 0.287133
vt 0.610616 0.468750
vt 0.633318 0.468750
vt 0.610616 0.650367
vt 0.633318 0.650367
vt 0.610616 0.831985
vt 0.587914 0.831985
vt 0.587914 0.650367
vt 0.587914 0.105515
vt 0.633318 0.105515
vt 0.633318 0.831985
vt 0.678723 0.105515
vt 0.678723 0.831985
vt 0.724127 0.831985
vt 0.724127 0.468750
vt 0.361195 0.267978
vt 0.224743 0.336204
vt 0.224743 0.267978
vt 0.361195 0.336204
vt 0.224743 0.472656
vt 0.361195 0.540882
vt 0.224743 0.609109
vt 0.224743 0.540882
vt 0.361195 0.609109
vt 0.224743 0.745561
vt 0.088290 0.540882
vt 0.088290 0.609109
vt 0.497647 0.540882
vt 0.361195 0.472656
vt 0.088290 0.472656
vt 0.361195 0.199752
vt 0.224743 0.199752
vt 0.818962 0.188996
vt 0.681038 0.326920
vt 0.681038 0.188996
vt 0.818962 0.326920
vt 0.681038 0.464844
vt 0.818962 0.464844
vt 0.681038 0.602767
vt 0.818962 0.602767
vt 0.681038 0.740691
vt 0.543115 0.602767
vt 0.543115 0.464844
vt 0.956885 0.464844
vt 0.809613 0.742357
vt 0.960088 0.591881
vt 0.769531 0.105515
vt 0.769531 0.831985
vt 0.951149 0.650367
vt 0.361195 0.745561
vt 0.497647 0.609109
vt 0.497647 0.472656
vt 0.818962 0.740691
vt 0.956885 0.602767
s 0
usemtl マテリアル
f 2/1/1 3/2/1 1/3/1
f 4/4/2 7/5/2 3/2/2
f 8/6/3 5/7/3 7/5/3
f 6/8/4 1/9/4 5/7/4
f 7/5/5 1/10/5 3/11/5
f 4/12/6 6/8/6 8/6/6
f 41/13/1 12/14/1 42/15/1
f 12/14/7 43/16/7 42/15/7
f 16/17/3 44/18/3 43/16/3
f 14/19/8 41/20/8 44/18/8
f 15/21/9 45/22/9 11/22/9
f 12/23/6 14/19/6 16/17/6
f 20/24/10 33/25/10 36/26/10
f 19/27/3 36/26/3 35/28/3
f 18/29/11 35/28/11 34/30/11
f 33/31/1 18/29/1 34/30/1
f 24/32/12 40/33/12 39/34/12
f 38/35/3 24/32/3 39/34/3
f 22/36/13 38/35/13 37/37/13
f 21/38/1 37/37/1 40/39/1
f 32/40/1 25/41/1 29/42/1
f 25/41/14 30/43/14 29/42/14
f 26/44/3 31/45/3 30/43/3
f 27/46/15 32/47/15 31/45/15
f 31/45/16 9/48/16 13/49/16
f 30/43/3 13/49/3 15/21/3
f 29/42/17 15/21/17 11/22/17
f 9/50/1 29/42/1 11/22/1
f 28/51/1 34/30/1 25/41/1
f 34/30/18 26/44/18 25/41/18
f 35/28/3 27/46/3 26/44/3
f 36/26/19 28/52/19 27/46/19
f 17/53/1 37/37/1 18/29/1
f 37/37/20 19/27/20 18/29/20
f 38/35/3 20/24/3 19/27/3
f 39/34/21 17/54/21 20/24/21
f 44/18/22 21/55/22 24/32/22
f 23/56/3 44/18/3 24/32/3
f 42/15/23 23/56/23 22/36/23
f 41/13/1 22/36/1 21/38/1
f 11/22/24 45/22/24 9/48/24
f 45/22/25 13/49/25 9/48/25
f 15/21/26 13/49/26 46/21/26
f 56/57/27 49/58/27 55/59/27
f 50/60/28 53/61/28 49/58/28
f 58/62/29 51/63/29 57/64/29
f 52/65/30 47/66/30 51/63/30
f 55/67/1 51/63/1 47/68/1
f 56/69/3 52/65/3 58/62/3
f 54/70/31 56/69/31 58/62/31
f 53/61/32 55/67/32 49/71/32
f 54/70/33 57/64/33 53/61/33
f 48/72/34 55/59/34 47/73/34
f 60/74/1 61/75/1 59/76/1
f 62/77/2 65/78/2 61/75/2
f 66/79/3 63/80/3 65/78/3
f 64/81/4 59/82/4 63/80/4
f 65/78/5 59/83/5 61/84/5
f 62/85/6 64/81/6 66/79/6
f 2/1/1 4/4/1 3/2/1
f 4/4/2 8/6/2 7/5/2
f 8/6/3 6/8/3 5/7/3
f 6/8/4 2/86/4 1/9/4
f 7/5/5 5/7/5 1/10/5
f 4/12/6 2/87/6 6/8/6
f 41/13/1 10/88/1 12/14/1
f 12/14/7 16/17/7 43/16/7
f 16/17/3 14/19/3 44/18/3
f 14/19/8 10/89/8 41/20/8
f 15/21/9 46/21/9 45/22/9
f 12/23/6 10/90/6 14/19/6
f 20/24/10 17/54/10 33/25/10
f 19/27/3 20/24/3 36/26/3
f 18/29/11 19/27/11 35/28/11
f 33/31/1 17/53/1 18/29/1
f 24/32/12 21/55/12 40/33/12
f 38/35/3 23/56/3 24/32/3
f 22/36/13 23/56/13 38/35/13
f 21/38/1 22/36/1 37/37/1
f 32/40/1 28/51/1 25/41/1
f 25/41/14 26/44/14 30/43/14
f 26/44/3 27/46/3 31/45/3
f 27/46/35 28/52/35 32/47/35
f 31/45/36 32/47/36 9/48/36
f 30/43/3 31/45/3 13/49/3
f 29/42/17 30/43/17 15/21/17
f 9/50/1 32/40/1 29/42/1
f 28/51/1 33/31/1 34/30/1
f 34/30/18 35/28/18 26/44/18
f 35/28/3 36/26/3 27/46/3
f 36/26/19 33/25/19 28/52/19
f 17/53/1 40/39/1 37/37/1
f 37/37/20 38/35/20 19/27/20
f 38/35/3 39/34/3 20/24/3
f 39/34/21 40/33/21 17/54/21
f 44/18/22 41/20/22 21/55/22
f 23/56/3 43/16/3 44/18/3
f 42/15/23 43/16/23 23/56/23
f 41/13/1 42/15/1 22/36/1
f 45/22/37 46/21/37 13/49/37
f 56/57/27 50/60/27 49/58/27
f 50/60/28 54/70/28 53/61/28
f 58/62/29 52/65/29 51/63/29
f 52/65/30 48/91/30 47/66/30
f 55/67/1 57/64/1 51/63/1
f 56/69/3 48/92/3 52/65/3
f 54/70/38 50/93/38 56/69/38
f 53/61/39 57/64/39 55/67/39
f 54/70/33 58/62/33 57/64/33
f 48/72/34 56/57/34 55/59/34
f 60/74/1 62/77/1 61/75/1
f 62/77/2 66/79/2 65/78/2
f 66/79/3 64/81/3 63/80/3
f 64/81/4 60/94/4 59/82/4
f 65/78/5 63/80/5 59/83/5
f 62/85/6 60/95/6 64/81/6
