# Blender 4.1.1
# www.blender.org
mtllib hook.mtl
o 立方体.002
v -0.082279 0.541624 -0.008241
v -0.082278 4.665322 -0.008241
v -0.065797 0.541624 -0.008241
v -0.065796 4.665322 -0.008241
v -0.082279 0.541624 0.008241
v -0.082278 4.665322 0.008241
v -0.065797 0.541624 0.008241
v -0.065796 4.665322 0.008241
v 0.125338 0.114639 -0.045369
v -0.102170 0.418163 -0.045369
v 0.067529 0.125126 -0.045369
v 0.032840 0.418163 -0.045369
v 0.126145 0.115007 0.045441
v -0.102170 0.418163 0.045441
v 0.067529 0.125126 0.045441
v 0.032840 0.418163 0.045441
v -0.187401 0.051631 -0.045369
v -0.107747 0.090676 -0.045369
v -0.107746 0.090676 0.045441
v -0.187401 0.051631 0.045441
v -0.171448 0.276776 -0.045369
v -0.087920 0.241503 -0.045369
v -0.087920 0.241503 0.045441
v -0.171448 0.276776 0.045441
v 0.003913 0.047468 -0.045369
v 0.003913 0.047468 0.045441
v 0.032780 -0.037922 0.045441
v 0.032780 -0.037922 -0.045369
v 0.043456 0.075995 -0.045369
v 0.043456 0.075995 0.045441
v 0.100517 0.030396 0.045441
v 0.099551 0.030714 -0.045369
v -0.092551 -0.036723 -0.045369
v -0.056849 0.047045 -0.045369
v -0.056849 0.047045 0.045441
v -0.092551 -0.036723 0.045441
v -0.127588 0.150926 -0.045369
v -0.127588 0.150926 0.045441
v -0.215772 0.157044 0.045441
v -0.215772 0.157044 -0.045369
v -0.099654 0.362907 -0.045369
v -0.000587 0.315975 -0.045369
v -0.000587 0.315975 0.045441
v -0.099654 0.362907 0.045441
v 0.085779 0.207176 -0.045062
v 0.085779 0.207176 0.045748
v -0.160517 0.523726 -0.076451
v -0.160517 0.523726 0.076451
v 0.024111 0.629256 -0.076451
v 0.024111 0.629256 0.076451
v -0.114573 0.406650 -0.076451
v -0.114573 0.406650 0.076451
v 0.078595 0.521785 -0.074664
v 0.078595 0.521785 0.074664
v -0.097963 0.631036 -0.076451
v -0.097963 0.631036 0.076451
v 0.042054 0.407400 -0.076451
v 0.042054 0.407400 0.076451
v -0.028357 0.541624 -0.008241
v -0.028356 4.665322 -0.008241
v -0.011875 0.541624 -0.008241
v -0.011874 4.665322 -0.008241
v -0.028357 0.541624 0.008241
v -0.028356 4.665322 0.008241
v -0.011875 0.541624 0.008241
v -0.011874 4.665322 0.008241
vn -0.0000 -0.0000 -1.0000
vn 1.0000 -0.0000 -0.0000
vn -0.0000 -0.0000 1.0000
vn -1.0000 -0.0000 -0.0000
vn -0.0000 -1.0000 -0.0000
vn -0.0000 1.0000 -0.0000
vn 0.9504 -0.3109 -0.0000
vn -0.9990 -0.0455 -0.0000
vn -0.9761 0.2171 -0.0000
vn -0.6816 -0.7317 -0.0000
vn 0.6508 0.7592 -0.0000
vn -0.9378 0.3472 -0.0000
vn 0.9160 -0.4012 -0.0000
vn -0.5851 0.8110 -0.0000
vn 0.7101 -0.7041 -0.0100
vn 0.9570 -0.2899 -0.0073
vn -0.8980 0.4400 -0.0000
vn -0.0070 1.0000 -0.0000
vn -0.0096 -1.0000 -0.0000
vn 0.9498 0.3128 -0.0000
vn -0.9656 -0.2599 -0.0000
vn -0.7681 0.6403 -0.0000
vn 0.6489 -0.7609 -0.0000
vn 0.0007 0.0036 -1.0000
vn 0.9194 0.3931 -0.0098
vn -0.0006 -0.0036 1.0000
vn 0.0146 0.9999 -0.0000
vn 0.8919 0.4522 -0.0000
vn 0.0048 -1.0000 -0.0000
vn -0.9309 -0.3653 -0.0000
vn 0.0165 0.0103 0.9998
vn -0.0002 -0.0167 -0.9999
vn 0.9526 -0.3043 -0.0000
vn -0.8639 0.5036 -0.0000
vn 0.0001 1.0000 -0.0000
vn 0.7168 -0.6973 -0.0000
vn 0.9558 -0.2937 -0.0112
vn 0.9160 0.4012 -0.0000
vn -0.0002 -0.0167 0.9999
vn 0.0165 0.0103 -0.9998
vt 0.809613 0.140456
vt 0.659137 0.290931
vt 0.659137 0.140456
vt 0.809613 0.290931
vt 0.659137 0.441406
vt 0.809613 0.441406
vt 0.659137 0.591881
vt 0.809613 0.591881
vt 0.659137 0.742357
vt 0.508662 0.591881
vt 0.508662 0.441406
vt 0.960088 0.441406
vt 0.746829 0.105515
vt 0.769531 0.287133
vt 0.746829 0.287133
vt 0.746829 0.468750
vt 0.769531 0.468750
vt 0.746829 0.650367
vt 0.769531 0.650367
vt 0.746829 0.831985
vt 0.587914 0.468750
vt 0.587914 0.287133
vt 0.951149 0.468750
vt 0.678723 0.650367
vt 0.656020 0.831985
vt 0.656020 0.650367
vt 0.678723 0.468750
vt 0.656020 0.468750
vt 0.678723 0.287133
vt 0.656020 0.287133
vt 0.656020 0.105515
vt 0.724127 0.650367
vt 0.701425 0.831985
vt 0.701425 0.650367
vt 0.701425 0.468750
vt 0.724127 0.287133
vt 0.701425 0.287133
vt 0.724127 0.105515
vt 0.701425 0.105515
vt 0.610616 0.105515
vt 0.633318 0.287133
vt 0.610616 0.287133
vt 0.610616 0.468750
vt 0.633318 0.468750
vt 0.610616 0.650367
vt 0.633318 0.650367
vt 0.610616 0.831985
vt 0.587914 0.831985
vt 0.587914 0.650367
vt 0.587914 0.105515
vt 0.633318 0.105515
vt 0.633318 0.831985
vt 0.678723 0.105515
vt 0.678723 0.831985
vt 0.724127 0.831985
vt 0.724127 0.468750
vt 0.361195 0.267978
vt 0.224743 0.336204
vt 0.224743 0.267978
vt 0.361195 0.336204
vt 0.224743 0.472656
vt 0.361195 0.540882
vt 0.224743 0.609109
vt 0.224743 0.540882
vt 0.361195 0.609109
vt 0.224743 0.745561
vt 0.088290 0.540882
vt 0.088290 0.609109
vt 0.497647 0.540882
vt 0.361195 0.472656
vt 0.088290 0.472656
vt 0.361195 0.199752
vt 0.224743 0.199752
vt 0.818962 0.188996
vt 0.681038 0.326920
vt 0.681038 0.188996
vt 0.818962 0.326920
vt 0.681038 0.464844
vt 0.818962 0.464844
vt 0.681038 0.602767
vt 0.818962 0.602767
vt 0.681038 0.740691
vt 0.543115 0.602767
vt 0.543115 0.464844
vt 0.956885 0.464844
vt 0.809613 0.742357
vt 0.960088 0.591881
vt 0.769531 0.105515
vt 0.769531 0.831985
vt 0.951149 0.650367
vt 0.361195 0.745561
vt 0.497647 0.609109
vt 0.497647 0.472656
vt 0.818962 0.740691
vt 0.956885 0.602767
s 0
usemtl マテリアル.001
f 2/1/1 3/2/1 1/3/1
f 4/4/2 7/5/2 3/2/2
f 8/6/3 5/7/3 7/5/3
f 6/8/4 1/9/4 5/7/4
f 7/5/5 1/10/5 3/11/5
f 4/12/6 6/8/6 8/6/6
f 41/13/1 12/14/1 42/15/1
f 12/14/7 43/16/7 42/15/7
f 16/17/3 44/18/3 43/16/3
f 14/19/8 41/20/8 44/18/8
f 15/21/9 45/22/9 11/22/9
f 12/23/6 14/19/6 16/17/6
f 20/24/10 33/25/10 36/26/10
f 19/27/3 36/26/3 35/28/3
f 18/29/11 35/28/11 34/30/11
f 33/31/1 18/29/1 34/30/1
f 24/32/12 40/33/12 39/34/12
f 38/35/3 24/32/3 39/34/3
f 22/36/13 38/35/13 37/37/13
f 21/38/1 37/37/1 40/39/1
f 32/40/1 25/41/1 29/42/1
f 25/41/14 30/43/14 29/42/14
f 26/44/3 31/45/3 30/43/3
f 27/46/15 32/47/15 31/45/15
f 31/45/16 9/48/16 13/49/16
f 30/43/3 13/49/3 15/21/3
f 29/42/17 15/21/17 11/22/17
f 9/50/1 29/42/1 11/22/1
f 28/51/1 34/30/1 25/41/1
f 34/30/18 26/44/18 25/41/18
f 35/28/3 27/46/3 26/44/3
f 36/26/19 28/52/19 27/46/19
f 17/53/1 37/37/1 18/29/1
f 37/37/20 19/27/20 18/29/20
f 38/35/3 20/24/3 19/27/3
f 39/34/21 17/54/21 20/24/21
f 44/18/22 21/55/22 24/32/22
f 23/56/3 44/18/3 24/32/3
f 42/15/23 23/56/23 22/36/23
f 41/13/1 22/36/1 21/38/1
f 11/22/24 45/22/24 9/48/24
f 45/22/25 13/49/25 9/48/25
f 15/21/26 13/49/26 46/21/26
f 56/57/27 49/58/27 55/59/27
f 50/60/28 53/61/28 49/58/28
f 58/62/29 51/63/29 57/64/29
f 52/65/30 47/66/30 51/63/30
f 55/67/1 51/63/1 47/68/1
f 56/69/3 52/65/3 58/62/3
f 54/70/31 56/69/31 58/62/31
f 53/61/32 55/67/32 49/71/32
f 54/70/33 57/64/33 53/61/33
f 48/72/34 55/59/34 47/73/34
f 60/74/1 61/75/1 59/76/1
f 62/77/2 65/78/2 61/75/2
f 66/79/3 63/80/3 65/78/3
f 64/81/4 59/82/4 63/80/4
f 65/78/5 59/83/5 61/84/5
f 62/85/6 64/81/6 66/79/6
f 2/1/1 4/4/1 3/2/1
f 4/4/2 8/6/2 7/5/2
f 8/6/3 6/8/3 5/7/3
f 6/8/4 2/86/4 1/9/4
f 7/5/5 5/7/5 1/10/5
f 4/12/35 2/87/35 6/8/35
f 41/13/1 10/88/1 12/14/1
f 12/14/7 16/17/7 43/16/7
f 16/17/3 14/19/3 44/18/3
f 14/19/8 10/89/8 41/20/8
f 15/21/9 46/21/9 45/22/9
f 12/23/6 10/90/6 14/19/6
f 20/24/10 17/54/10 33/25/10
f 19/27/3 20/24/3 36/26/3
f 18/29/11 19/27/11 35/28/11
f 33/31/1 17/53/1 18/29/1
f 24/32/12 21/55/12 40/33/12
f 38/35/3 23/56/3 24/32/3
f 22/36/13 23/56/13 38/35/13
f 21/38/1 22/36/1 37/37/1
f 32/40/1 28/51/1 25/41/1
f 25/41/14 26/44/14 30/43/14
f 26/44/3 27/46/3 31/45/3
f 27/46/36 28/52/36 32/47/36
f 31/45/37 32/47/37 9/48/37
f 30/43/3 31/45/3 13/49/3
f 29/42/17 30/43/17 15/21/17
f 9/50/1 32/40/1 29/42/1
f 28/51/1 33/31/1 34/30/1
f 34/30/18 35/28/18 26/44/18
f 35/28/3 36/26/3 27/46/3
f 36/26/19 33/25/19 28/52/19
f 17/53/1 40/39/1 37/37/1
f 37/37/20 38/35/20 19/27/20
f 38/35/3 39/34/3 20/24/3
f 39/34/21 40/33/21 17/54/21
f 44/18/22 41/20/22 21/55/22
f 23/56/3 43/16/3 44/18/3
f 42/15/23 43/16/23 23/56/23
f 41/13/1 42/15/1 22/36/1
f 45/22/38 46/21/38 13/49/38
f 56/57/27 50/60/27 49/58/27
f 50/60/28 54/70/28 53/61/28
f 58/62/29 52/65/29 51/63/29
f 52/65/30 48/91/30 47/66/30
f 55/67/1 57/64/1 51/63/1
f 56/69/3 48/92/3 52/65/3
f 54/70/39 50/93/39 56/69/39
f 53/61/40 57/64/40 55/67/40
f 54/70/33 58/62/33 57/64/33
f 48/72/34 56/57/34 55/59/34
f 60/74/1 62/77/1 61/75/1
f 62/77/2 66/79/2 65/78/2
f 66/79/3 64/81/3 63/80/3
f 64/81/4 60/94/4 59/82/4
f 65/78/5 63/80/5 59/83/5
f 62/85/6 60/95/6 64/81/6
