{
	"asset":{
		"generator":"Khronos glTF Blender I/O v4.1.63",
		"version":"2.0"
	},
	"scene":0,
	"scenes":[
		{
			"name":"Scene",
			"nodes":[
				0
			]
		}
	],
	"nodes":[
		{
			"mesh":0,
			"name":"Cube"
		}
	],
	"materials":[
		{
			"doubleSided":true,
			"name":"Material",
			"pbrMetallicRoughness":{
				"baseColorTexture":{
					"index":0
				},
				"metallicFactor":0,
				"roughnessFactor":0.5
			}
		}
	],
	"meshes":[
		{
			"name":"Cube",
			"primitives":[
				{
					"attributes":{
						"POSITION":0,
						"NORMAL":1,
						"TEXCOORD_0":2
					},
					"indices":3,
					"material":0
				}
			]
		}
	],
	"textures":[
		{
			"sampler":0,
			"source":0
		}
	],
	"images":[
		{
			"mimeType":"image/png",
			"name":"Field",
			"uri":"Field.png"
		}
	],
	"accessors":[
		{
			"bufferView":0,
			"componentType":5126,
			"count":3150,
			"max":[
				6.903144359588623,
				1.0690199136734009,
				1.0000003576278687
			],
			"min":[
				-6.903144359588623,
				-1,
				-1.0000003576278687
			],
			"type":"VEC3"
		},
		{
			"bufferView":1,
			"componentType":5126,
			"count":3150,
			"type":"VEC3"
		},
		{
			"bufferView":2,
			"componentType":5126,
			"count":3150,
			"type":"VEC2"
		},
		{
			"bufferView":3,
			"componentType":5123,
			"count":11928,
			"type":"SCALAR"
		}
	],
	"bufferViews":[
		{
			"buffer":0,
			"byteLength":37800,
			"byteOffset":0,
			"target":34962
		},
		{
			"buffer":0,
			"byteLength":37800,
			"byteOffset":37800,
			"target":34962
		},
		{
			"buffer":0,
			"byteLength":25200,
			"byteOffset":75600,
			"target":34962
		},
		{
			"buffer":0,
			"byteLength":23856,
			"byteOffset":100800,
			"target":34963
		}
	],
	"samplers":[
		{
			"magFilter":9729,
			"minFilter":9987
		}
	],
	"buffers":[
		{
			"byteLength":124656,
			"uri":"Field.bin"
		}
	]
}
