{
	"asset":{
		"generator":"Khronos glTF Blender I/O v4.1.63",
		"version":"2.0"
	},
	"scene":0,
	"scenes":[
		{
			"name":"Scene",
			"nodes":[
				0
			]
		}
	],
	"nodes":[
		{
			"mesh":0,
			"name":"Cube",
			"scale":[
				1,
				0.12511052191257477,
				1.717510461807251
			],
			"translation":[
				0,
				0.1956699639558792,
				0
			]
		}
	],
	"materials":[
		{
			"doubleSided":true,
			"name":"Material",
			"pbrMetallicRoughness":{
				"baseColorTexture":{
					"index":0
				},
				"metallicFactor":0,
				"roughnessFactor":0.5
			}
		}
	],
	"meshes":[
		{
			"name":"Cube",
			"primitives":[
				{
					"attributes":{
						"POSITION":0,
						"NORMAL":1,
						"TEXCOORD_0":2
					},
					"indices":3,
					"material":0
				}
			]
		}
	],
	"textures":[
		{
			"sampler":0,
			"source":0
		}
	],
	"images":[
		{
			"mimeType":"image/png",
			"name":"Floor",
			"uri":"Floor.png"
		}
	],
	"accessors":[
		{
			"bufferView":0,
			"componentType":5126,
			"count":889,
			"max":[
				1,
				1,
				1
			],
			"min":[
				-1,
				-4.333443641662598,
				-1
			],
			"type":"VEC3"
		},
		{
			"bufferView":1,
			"componentType":5126,
			"count":889,
			"type":"VEC3"
		},
		{
			"bufferView":2,
			"componentType":5126,
			"count":889,
			"type":"VEC2"
		},
		{
			"bufferView":3,
			"componentType":5123,
			"count":2628,
			"type":"SCALAR"
		}
	],
	"bufferViews":[
		{
			"buffer":0,
			"byteLength":10668,
			"byteOffset":0,
			"target":34962
		},
		{
			"buffer":0,
			"byteLength":10668,
			"byteOffset":10668,
			"target":34962
		},
		{
			"buffer":0,
			"byteLength":7112,
			"byteOffset":21336,
			"target":34962
		},
		{
			"buffer":0,
			"byteLength":5256,
			"byteOffset":28448,
			"target":34963
		}
	],
	"samplers":[
		{
			"magFilter":9729,
			"minFilter":9987
		}
	],
	"buffers":[
		{
			"byteLength":33704,
			"uri":"Floor.bin"
		}
	]
}
