{
	"asset":{
		"generator":"Khronos glTF Blender I/O v4.1.63",
		"version":"2.0"
	},
	"scene":0,
	"scenes":[
		{
			"name":"Scene",
			"nodes":[
				0
			]
		}
	],
	"nodes":[
		{
			"mesh":0,
			"name":"\u7403"
		}
	],
	"materials":[
		{
			"doubleSided":true,
			"name":"\u30de\u30c6\u30ea\u30a2\u30eb",
			"pbrMetallicRoughness":{
				"baseColorTexture":{
					"index":0
				},
				"metallicFactor":0,
				"roughnessFactor":0.5
			}
		}
	],
	"meshes":[
		{
			"name":"\u7403",
			"primitives":[
				{
					"attributes":{
						"POSITION":0,
						"NORMAL":1,
						"TEXCOORD_0":2
					},
					"indices":3,
					"material":0
				}
			]
		}
	],
	"textures":[
		{
			"sampler":0,
			"source":0
		}
	],
	"images":[
		{
			"mimeType":"image/png",
			"name":"BigBomb",
			"uri":"BigBomb.png"
		}
	],
	"accessors":[
		{
			"bufferView":0,
			"componentType":5126,
			"count":2144,
			"max":[
				1.0570086240768433,
				1.6722530126571655,
				1.0570085048675537
			],
			"min":[
				-1.0570083856582642,
				-1.5273765325546265,
				-1.057007908821106
			],
			"type":"VEC3"
		},
		{
			"bufferView":1,
			"componentType":5126,
			"count":2144,
			"type":"VEC3"
		},
		{
			"bufferView":2,
			"componentType":5126,
			"count":2144,
			"type":"VEC2"
		},
		{
			"bufferView":3,
			"componentType":5123,
			"count":3120,
			"type":"SCALAR"
		}
	],
	"bufferViews":[
		{
			"buffer":0,
			"byteLength":25728,
			"byteOffset":0,
			"target":34962
		},
		{
			"buffer":0,
			"byteLength":25728,
			"byteOffset":25728,
			"target":34962
		},
		{
			"buffer":0,
			"byteLength":17152,
			"byteOffset":51456,
			"target":34962
		},
		{
			"buffer":0,
			"byteLength":6240,
			"byteOffset":68608,
			"target":34963
		}
	],
	"samplers":[
		{
			"magFilter":9729,
			"minFilter":9987
		}
	],
	"buffers":[
		{
			"byteLength":74848,
			"uri":"BigBomb.bin"
		}
	]
}
