# Blender 5.0.1
# www.blender.org
mtllib stopWatch.mtl
o Body
v -0.910715 0.000000 0.221703
v -0.916068 -0.000000 -0.100456
v -0.788702 -0.455358 0.221703
v -0.793146 -0.458749 -0.100456
v -0.455358 -0.788702 0.221703
v -0.457319 -0.794576 -0.100456
v 0.000000 -0.910715 0.221703
v 0.001430 -0.917498 -0.100456
v 0.455358 -0.788702 0.221703
v 0.460179 -0.794576 -0.100456
v 0.788702 -0.455358 0.221703
v 0.796006 -0.458749 -0.100456
v 0.910715 0.000000 0.221703
v 0.918928 -0.000000 -0.100456
v 0.788702 0.455358 0.221703
v 0.796006 0.458749 -0.100456
v 0.455358 0.788702 0.221703
v 0.460179 0.794576 -0.100456
v 0.000000 0.910715 0.221703
v 0.001430 0.917498 -0.100456
v -0.455358 0.788702 0.221703
v -0.457319 0.794576 -0.100456
v -0.788702 0.455358 0.221703
v -0.793146 0.458749 -0.100456
v -0.697068 -0.000000 -0.045460
v -0.602249 -0.353873 -0.045460
v -0.343196 -0.612925 -0.045460
v 0.010677 -0.707745 -0.045460
v 0.364549 -0.612925 -0.045460
v 0.623602 -0.353873 -0.045460
v 0.718422 -0.000000 -0.045460
v 0.623602 0.353873 -0.045460
v 0.364549 0.612925 -0.045460
v 0.010677 0.707745 -0.045460
v -0.343196 0.612925 -0.045460
v -0.602249 0.353873 -0.045460
v 0.788276 -0.000000 -0.131739
v 0.683544 0.390865 -0.131739
v 0.683544 -0.390865 -0.131739
v 0.397411 -0.676998 -0.131739
v 0.006546 -0.781730 -0.131739
v -0.670452 0.390865 -0.131739
v -0.775183 -0.000000 -0.131739
v -0.670452 -0.390865 -0.131739
v -0.384319 -0.676998 -0.131739
v -0.384319 0.676998 -0.131739
v 0.006546 0.781730 -0.131739
v 0.397411 0.676998 -0.131739
v -0.763876 0.000000 0.353484
v -0.661536 -0.381938 0.353484
v -0.381938 -0.661536 0.353484
v 0.000000 -0.763876 0.353484
v 0.381938 -0.661536 0.353484
v 0.661536 -0.381938 0.353484
v 0.763876 0.000000 0.353484
v 0.661536 0.381938 0.353484
v 0.381938 0.661536 0.353484
v 0.000000 0.763876 0.353484
v -0.381938 0.661536 0.353484
v -0.661536 0.381938 0.353484
vn -0.9658 -0.2588 0.0160
vn -0.7070 -0.7070 0.0172
vn -0.2588 -0.9657 0.0192
vn 0.2588 -0.9657 0.0215
vn 0.7069 -0.7069 0.0235
vn 0.9656 -0.2587 0.0246
vn 0.9656 0.2587 0.0246
vn 0.7069 0.7069 0.0235
vn 0.2588 0.9657 0.0215
vn -0.2588 0.9657 0.0192
vn -0.7609 -0.2039 -0.6160
vn -0.7070 0.7070 0.0172
vn -0.9658 0.2588 0.0160
vn 0.4813 0.4813 0.7326
vn -0.7609 0.2039 -0.6160
vn -0.5537 0.5537 -0.6220
vn -0.2005 0.7484 -0.6322
vn 0.7271 -0.1948 -0.6583
vn 0.7271 0.1948 -0.6583
vn 0.1981 0.7394 -0.6435
vn 0.5355 -0.5355 -0.6530
vn 0.5356 0.5356 -0.6530
vn 0.1981 -0.7394 -0.6435
vn -0.2005 -0.7484 -0.6322
vn -0.5537 -0.5537 -0.6220
vn 0.1685 0.1685 -0.9712
vn 0.0606 0.2263 -0.9722
vn -0.0595 0.2220 -0.9732
vn -0.1599 -0.1599 -0.9741
vn -0.1599 0.1599 -0.9741
vn -0.0595 -0.2220 -0.9732
vn -0.2164 -0.0580 -0.9746
vn -0.2164 0.0580 -0.9746
vn 0.0606 -0.2263 -0.9722
vn 0.1685 -0.1685 -0.9712
vn 0.2324 -0.0623 -0.9706
vn 0.2324 0.0623 -0.9706
vn -0.0000 -0.0000 1.0000
vn 0.6575 0.1762 0.7326
vn 0.6575 -0.1762 0.7326
vn 0.4813 -0.4813 0.7326
vn 0.1762 -0.6575 0.7326
vn -0.6575 0.1762 0.7326
vn -0.6575 -0.1762 0.7326
vn -0.1762 -0.6575 0.7326
vn -0.4813 0.4813 0.7326
vn -0.4813 -0.4813 0.7326
vn -0.1762 0.6575 0.7326
vn 0.1762 0.6575 0.7326
vn 0.5356 -0.5356 -0.6530
vn 0.5355 0.5355 -0.6530
vt 1.000000 1.000000
vt 0.916667 0.500000
vt 1.000000 0.500000
vt 0.916667 1.000000
vt 0.833333 0.500000
vt 0.833333 1.000000
vt 0.750000 0.500000
vt 0.750000 1.000000
vt 0.666667 0.500000
vt 0.666667 1.000000
vt 0.583333 0.500000
vt 0.583333 1.000000
vt 0.500000 0.500000
vt 0.416667 1.000000
vt 0.416667 0.500000
vt 0.333333 1.000000
vt 0.333333 0.500000
vt 0.250000 1.000000
vt 0.250000 0.500000
vt 0.166667 1.000000
vt 0.166667 0.500000
vt 0.500000 1.000000
vt 0.416667 1.000000
vt 0.083333 1.000000
vt 0.083333 0.500000
vt 0.000000 1.000000
vt 0.000000 0.500000
vt 0.583333 1.000000
vt 0.916667 1.000000
vt 0.750000 1.000000
vt 0.166667 1.000000
vt 0.833333 1.000000
vt 0.333333 1.000000
vt 0.990000 0.250000
vt 0.630000 0.042154
vt 0.630000 0.457846
vt 0.750000 0.490000
vt 0.870000 0.457846
vt 0.957846 0.370000
vt 0.957846 0.130000
vt 0.870000 0.042154
vt 0.750000 0.010000
vt 0.542154 0.130000
vt 0.510000 0.250000
vt 0.542154 0.370000
s 0
f 2/1/1 3/2/1 1/3/1
f 4/4/2 5/5/2 3/2/2
f 6/6/3 7/7/3 5/5/3
f 8/8/4 9/9/4 7/7/4
f 10/10/5 11/11/5 9/9/5
f 12/12/6 13/13/6 11/11/6
f 13/13/7 16/14/7 15/15/7
f 15/15/8 18/16/8 17/17/8
f 17/17/9 20/18/9 19/19/9
f 19/19/10 22/20/10 21/21/10
f 37/22/11 32/14/11 38/23/11
f 21/21/12 24/24/12 23/25/12
f 23/25/13 2/26/13 1/27/13
f 17/17/14 56/15/14 15/15/14
f 37/22/15 30/12/15 31/22/15
f 39/28/16 29/10/16 30/12/16
f 40/10/17 28/8/17 29/10/17
f 42/24/18 25/26/18 43/26/18
f 44/29/19 25/1/19 26/4/19
f 41/30/20 27/6/20 28/8/20
f 46/31/21 36/24/21 42/24/21
f 45/32/22 26/4/22 27/6/22
f 47/18/23 35/20/23 46/31/23
f 48/33/24 34/18/24 47/18/24
f 38/23/25 33/16/25 48/33/25
f 16/14/26 48/33/26 18/16/26
f 18/16/27 47/18/27 20/18/27
f 20/18/28 46/31/28 22/20/28
f 6/6/29 44/29/29 45/32/29
f 22/20/30 42/24/30 24/24/30
f 8/8/31 45/32/31 41/30/31
f 4/4/32 43/1/32 44/29/32
f 24/24/33 43/26/33 2/26/33
f 10/10/34 41/30/34 40/10/34
f 12/12/35 40/10/35 39/28/35
f 14/22/36 39/28/36 37/22/36
f 14/22/37 38/23/37 16/14/37
f 52/34/38 56/35/38 60/36/38
f 15/15/39 55/13/39 13/13/39
f 13/13/40 54/11/40 11/11/40
f 11/11/41 53/9/41 9/9/41
f 9/9/42 52/7/42 7/7/42
f 1/27/43 60/25/43 23/25/43
f 3/2/44 49/3/44 1/3/44
f 5/5/45 52/7/45 51/5/45
f 21/21/46 60/25/46 59/21/46
f 3/2/47 51/5/47 50/2/47
f 21/21/48 58/19/48 19/19/48
f 17/17/49 58/19/49 57/17/49
f 2/1/1 4/4/1 3/2/1
f 4/4/2 6/6/2 5/5/2
f 6/6/3 8/8/3 7/7/3
f 8/8/4 10/10/4 9/9/4
f 10/10/5 12/12/5 11/11/5
f 12/12/6 14/22/6 13/13/6
f 13/13/7 14/22/7 16/14/7
f 15/15/8 16/14/8 18/16/8
f 17/17/9 18/16/9 20/18/9
f 19/19/10 20/18/10 22/20/10
f 37/22/11 31/22/11 32/14/11
f 21/21/12 22/20/12 24/24/12
f 23/25/13 24/24/13 2/26/13
f 17/17/14 57/17/14 56/15/14
f 37/22/15 39/28/15 30/12/15
f 39/28/16 40/10/16 29/10/16
f 40/10/17 41/30/17 28/8/17
f 42/24/18 36/24/18 25/26/18
f 44/29/19 43/1/19 25/1/19
f 41/30/20 45/32/20 27/6/20
f 46/31/50 35/20/50 36/24/50
f 45/32/51 44/29/51 26/4/51
f 47/18/23 34/18/23 35/20/23
f 48/33/24 33/16/24 34/18/24
f 38/23/25 32/14/25 33/16/25
f 16/14/26 38/23/26 48/33/26
f 18/16/27 48/33/27 47/18/27
f 20/18/28 47/18/28 46/31/28
f 6/6/29 4/4/29 44/29/29
f 22/20/30 46/31/30 42/24/30
f 8/8/31 6/6/31 45/32/31
f 4/4/32 2/1/32 43/1/32
f 24/24/33 42/24/33 43/26/33
f 10/10/34 8/8/34 41/30/34
f 12/12/35 10/10/35 40/10/35
f 14/22/36 12/12/36 39/28/36
f 14/22/37 37/22/37 38/23/37
f 60/36/38 49/37/38 50/38/38
f 50/38/38 51/39/38 52/34/38
f 52/34/38 53/40/38 54/41/38
f 54/41/38 55/42/38 56/35/38
f 56/35/38 57/43/38 58/44/38
f 58/44/38 59/45/38 60/36/38
f 60/36/38 50/38/38 52/34/38
f 52/34/38 54/41/38 56/35/38
f 56/35/38 58/44/38 60/36/38
f 15/15/39 56/15/39 55/13/39
f 13/13/40 55/13/40 54/11/40
f 11/11/41 54/11/41 53/9/41
f 9/9/42 53/9/42 52/7/42
f 1/27/43 49/27/43 60/25/43
f 3/2/44 50/2/44 49/3/44
f 5/5/45 7/7/45 52/7/45
f 21/21/46 23/25/46 60/25/46
f 3/2/47 5/5/47 51/5/47
f 21/21/48 59/21/48 58/19/48
f 17/17/49 19/19/49 58/19/49
o Button
v -0.120000 0.893442 0.065224
v -0.120000 1.035659 0.065224
v -0.084853 0.893442 -0.019629
v -0.084853 1.035659 -0.019629
v -0.000000 0.893442 -0.054776
v -0.000000 1.035659 -0.054776
v 0.084853 0.893442 -0.019629
v 0.084853 1.035659 -0.019629
v 0.120000 0.893442 0.065224
v 0.120000 1.035659 0.065224
v 0.084853 0.893442 0.150077
v 0.084853 1.035659 0.150077
v 0.000000 0.893442 0.185224
v 0.000000 1.035659 0.185224
v -0.084853 0.893442 0.150077
v -0.084853 1.035659 0.150077
vn -0.9239 -0.0000 -0.3827
vn -0.3827 -0.0000 -0.9239
vn 0.3827 -0.0000 -0.9239
vn 0.9239 -0.0000 -0.3827
vn 0.9239 -0.0000 0.3827
vn 0.3827 -0.0000 0.9239
vn -0.0000 1.0000 -0.0000
vn -0.3827 -0.0000 0.9239
vn -0.9239 -0.0000 0.3827
vn -0.0000 -1.0000 -0.0000
vt 1.000000 1.000000
vt 0.875000 0.500000
vt 1.000000 0.500000
vt 0.875000 1.000000
vt 0.750000 0.500000
vt 0.750000 1.000000
vt 0.625000 0.500000
vt 0.625000 1.000000
vt 0.500000 0.500000
vt 0.500000 1.000000
vt 0.375000 0.500000
vt 0.375000 1.000000
vt 0.250000 0.500000
vt 0.010000 0.250000
vt 0.250000 0.010000
vt 0.490000 0.250000
vt 0.250000 1.000000
vt 0.125000 0.500000
vt 0.125000 1.000000
vt 0.000000 0.500000
vt 0.919706 0.080294
vt 0.580294 0.080294
vt 0.580294 0.419706
vt 0.419706 0.419706
vt 0.250000 0.490000
vt 0.080294 0.419706
vt 0.080294 0.080294
vt 0.419706 0.080294
vt 0.000000 1.000000
vt 0.750000 0.490000
vt 0.919706 0.419706
vt 0.990000 0.250000
vt 0.750000 0.010000
vt 0.510000 0.250000
s 0
f 62/46/52 63/47/52 61/48/52
f 64/49/53 65/50/53 63/47/53
f 66/51/54 67/52/54 65/50/54
f 68/53/55 69/54/55 67/52/55
f 70/55/56 71/56/56 69/54/56
f 72/57/57 73/58/57 71/56/57
f 74/59/58 70/60/58 66/61/58
f 74/62/59 75/63/59 73/58/59
f 76/64/60 61/65/60 75/63/60
f 67/66/61 71/67/61 75/68/61
f 62/46/52 64/49/52 63/47/52
f 64/49/53 66/51/53 65/50/53
f 66/51/54 68/53/54 67/52/54
f 68/53/55 70/55/55 69/54/55
f 70/55/56 72/57/56 71/56/56
f 72/57/57 74/62/57 73/58/57
f 66/61/58 64/69/58 62/70/58
f 62/70/58 76/71/58 74/59/58
f 74/59/58 72/72/58 70/60/58
f 70/60/58 68/73/58 66/61/58
f 66/61/58 62/70/58 74/59/58
f 74/62/59 76/64/59 75/63/59
f 76/64/60 62/74/60 61/65/60
f 75/68/61 61/75/61 63/76/61
f 63/76/61 65/77/61 67/66/61
f 67/66/61 69/78/61 71/67/61
f 71/67/61 73/79/61 75/68/61
f 75/68/61 63/76/61 67/66/61
o HourHand
v 0.048607 -0.009377 -0.069272
v -0.160879 0.521917 -0.063964
v -0.021411 -0.037002 -0.067498
v -0.230897 0.494292 -0.062190
v 0.047746 -0.009377 -0.103261
v -0.161740 0.521917 -0.097953
v -0.022273 -0.037002 -0.101487
v -0.231759 0.494292 -0.096179
vn 0.0253 -0.0000 0.9997
vn -0.9300 -0.3669 0.0236
vn -0.0253 -0.0000 -0.9997
vn 0.9300 0.3669 -0.0236
vn 0.3668 -0.9303 -0.0093
vn -0.3668 0.9303 0.0093
vt 0.625000 0.000000
vt 0.375000 0.250000
vt 0.375000 0.000000
vt 0.625000 0.250000
vt 0.375000 0.500000
vt 0.625000 0.750000
vt 0.375000 0.750000
vt 0.375000 1.000000
vt 0.125000 0.750000
vt 0.125000 0.500000
vt 0.625000 0.500000
vt 0.875000 0.750000
vt 0.625000 1.000000
vt 0.875000 0.500000
s 0
f 78/80/62 79/81/62 77/82/62
f 80/83/63 83/84/63 79/81/63
f 83/84/64 82/85/64 81/86/64
f 82/85/65 77/87/65 81/86/65
f 83/84/66 77/88/66 79/89/66
f 84/90/67 78/91/67 82/85/67
f 78/80/62 80/83/62 79/81/62
f 80/83/63 84/90/63 83/84/63
f 83/84/64 84/90/64 82/85/64
f 82/85/65 78/92/65 77/87/65
f 83/84/66 81/86/66 77/88/66
f 84/90/67 80/93/67 78/91/67
o MinuteHand
v 0.035088 0.015725 -0.073865
v -0.317728 0.173822 -0.070272
v 0.014733 -0.029726 -0.072691
v -0.338082 0.128371 -0.069098
v 0.034681 0.015327 -0.096353
v -0.318135 0.173424 -0.092760
v 0.014326 -0.030125 -0.095179
v -0.338490 0.127972 -0.091586
vn 0.0181 0.0177 0.9997
vn -0.4086 -0.9124 0.0236
vn -0.0181 -0.0177 -0.9997
vn 0.4086 0.9124 -0.0236
vn 0.9125 -0.4089 -0.0093
vn -0.9125 0.4089 0.0093
vt 0.625000 0.000000
vt 0.375000 0.250000
vt 0.375000 0.000000
vt 0.625000 0.250000
vt 0.375000 0.500000
vt 0.625000 0.500000
vt 0.375000 0.750000
vt 0.625000 0.750000
vt 0.375000 1.000000
vt 0.125000 0.750000
vt 0.125000 0.500000
vt 0.875000 0.500000
vt 0.625000 1.000000
vt 0.875000 0.750000
s 0
f 86/94/68 87/95/68 85/96/68
f 88/97/69 91/98/69 87/95/69
f 92/99/70 89/100/70 91/98/70
f 90/101/71 85/102/71 89/100/71
f 91/98/72 85/103/72 87/104/72
f 88/105/73 90/101/73 92/99/73
f 86/94/68 88/97/68 87/95/68
f 88/97/69 92/99/69 91/98/69
f 92/99/70 90/101/70 89/100/70
f 90/101/71 86/106/71 85/102/71
f 91/98/72 89/100/72 85/103/72
f 88/105/73 86/107/73 90/101/73
o DialFace
v -0.697068 -0.000000 -0.045460
v -0.602249 -0.353873 -0.045460
v -0.343196 -0.612925 -0.045460
v 0.010677 -0.707745 -0.045460
v 0.364549 -0.612925 -0.045460
v 0.623602 -0.353873 -0.045460
v 0.718422 -0.000000 -0.045460
v 0.623602 0.353873 -0.045460
v 0.364549 0.612925 -0.045460
v 0.010677 0.707745 -0.045460
v -0.343196 0.612925 -0.045460
v -0.602249 0.353873 -0.045460
vn -0.0000 -0.0000 -1.0000
vt 0.042154 0.370000
vt 0.250000 0.010000
vt 0.457846 0.370000
vt 0.370000 0.457846
vt 0.250000 0.490000
vt 0.130000 0.457846
vt 0.010000 0.250000
vt 0.042154 0.130000
vt 0.130000 0.042154
vt 0.370000 0.042154
vt 0.457846 0.130000
vt 0.490000 0.250000
s 0
f 103/108/74 99/109/74 95/110/74
f 95/110/74 94/111/74 93/112/74
f 93/112/74 104/113/74 103/108/74
f 103/108/74 102/114/74 101/115/74
f 101/115/74 100/116/74 99/109/74
f 99/109/74 98/117/74 97/118/74
f 97/118/74 96/119/74 95/110/74
f 95/110/74 93/112/74 103/108/74
f 103/108/74 101/115/74 99/109/74
f 99/109/74 97/118/74 95/110/74
