{
	"asset":{
		"generator":"Khronos glTF Blender I/O v4.1.63",
		"version":"2.0"
	},
	"scene":0,
	"scenes":[
		{
			"name":"Scene",
			"nodes":[
				23,
				24
			]
		}
	],
	"nodes":[
		{
			"name":"\u30dc\u30fc\u30f3.006",
			"rotation":[
				-9.783840404509192e-16,
				2.608031479667261e-08,
				2.60770320892334e-08,
				1
			],
			"translation":[
				-5.8673322200775146e-08,
				0.29333391785621643,
				-7.771561172376096e-16
			]
		},
		{
			"children":[
				0
			],
			"name":"\u30dc\u30fc\u30f3.005",
			"rotation":[
				-4.787836793695988e-16,
				1.5831743027661105e-08,
				1.6763806343078613e-08,
				1
			],
			"translation":[
				4.6566128730773926e-08,
				0.3715223968029022,
				-7.771561172376096e-16
			]
		},
		{
			"children":[
				1
			],
			"name":"\u30dc\u30fc\u30f3.004",
			"rotation":[
				3.8163916471489756e-16,
				6.518957818002491e-09,
				5.820766091346741e-09,
				1
			],
			"translation":[
				-4.6566128730773926e-09,
				0.377975195646286,
				3.608224830031759e-16
			]
		},
		{
			"children":[
				2
			],
			"name":"\u30dc\u30fc\u30f3.003",
			"rotation":[
				-2.0816681711721685e-17,
				-2.5149038407334956e-08,
				-2.514570951461792e-08,
				1
			],
			"translation":[
				-2.7939677238464355e-08,
				0.4366168677806854,
				-7.355227538141662e-16
			]
		},
		{
			"children":[
				3
			],
			"name":"\u30dc\u30fc\u30f3.002",
			"rotation":[
				1.8338543184004408e-10,
				-1.537060256850964e-08,
				-1.4901161193847656e-08,
				1
			],
			"translation":[
				2.2118911147117615e-08,
				1.348881721496582,
				1.2490009027033011e-15
			]
		},
		{
			"children":[
				4
			],
			"name":"\u30dc\u30fc\u30f3.001",
			"rotation":[
				1.906305158172472e-08,
				1.9793242600485428e-08,
				-0.7105144262313843,
				0.7036827206611633
			],
			"scale":[
				0.9999999403953552,
				0.9999999403953552,
				1
			],
			"translation":[
				0,
				0.9999999403953552,
				0
			]
		},
		{
			"name":"\u30dc\u30fc\u30f3.017",
			"rotation":[
				9.992007221626409e-16,
				-1.579802244577877e-08,
				-1.6298145055770874e-08,
				1
			],
			"translation":[
				-4.190951585769653e-08,
				0.2651405930519104,
				-3.9968028886505635e-15
			]
		},
		{
			"children":[
				6
			],
			"name":"\u30dc\u30fc\u30f3.016",
			"rotation":[
				-1.6930901125533637e-15,
				3.6332238551040064e-08,
				3.5390257835388184e-08,
				1
			],
			"translation":[
				-3.3527612686157227e-08,
				0.4061352610588074,
				-9.71445146547012e-16
			]
		},
		{
			"children":[
				7
			],
			"name":"\u30dc\u30fc\u30f3.015",
			"rotation":[
				1.1379786002407855e-15,
				3.0713017906691675e-08,
				3.073364496231079e-08,
				1
			],
			"translation":[
				5.3085386753082275e-08,
				0.36704540252685547,
				-2.4424906541753444e-15
			]
		},
		{
			"children":[
				8
			],
			"name":"\u30dc\u30fc\u30f3.014",
			"rotation":[
				-1.2836953722228372e-15,
				-3.162814721235918e-08,
				-3.259629011154175e-08,
				1
			],
			"translation":[
				-3.818422555923462e-08,
				0.40707945823669434,
				-1.0824674490095276e-15
			]
		},
		{
			"children":[
				9
			],
			"name":"\u30dc\u30fc\u30f3.013",
			"rotation":[
				2.2677157374140222e-10,
				-1.3068691018247591e-08,
				-1.0244548320770264e-08,
				1
			],
			"translation":[
				2.60770320892334e-08,
				1.3607501983642578,
				1.582067810090848e-15
			]
		},
		{
			"children":[
				10
			],
			"name":"\u30dc\u30fc\u30f3.012",
			"rotation":[
				-1.6761608989668275e-08,
				1.4851250007552608e-08,
				0.7131755352020264,
				0.7009855508804321
			],
			"scale":[
				0.9999999403953552,
				0.9999999403953552,
				1
			],
			"translation":[
				0,
				0.9999999403953552,
				0
			]
		},
		{
			"children":[
				5,
				11
			],
			"name":"\u30dc\u30fc\u30f3"
		},
		{
			"name":"\u30dc\u30fc\u30f3.011",
			"rotation":[
				2.196131333224668e-15,
				-1.0547016031194133e-16,
				6.5943272537112834e-15,
				1
			],
			"scale":[
				1,
				0.9999998807907104,
				0.9999998807907104
			],
			"translation":[
				1.0658141036401503e-14,
				0.27367323637008667,
				-3.1086244689504383e-15
			]
		},
		{
			"children":[
				13
			],
			"name":"\u30dc\u30fc\u30f3.010",
			"rotation":[
				2.640221178349441e-15,
				3.3861841426341085e-16,
				1.725246871362926e-14,
				1
			],
			"scale":[
				1,
				0.9999998807907104,
				0.9999998807907104
			],
			"translation":[
				-1.7763568394002505e-14,
				0.3062533736228943,
				4.440892098500626e-16
			]
		},
		{
			"children":[
				14
			],
			"name":"\u30dc\u30fc\u30f3.009",
			"rotation":[
				1.4901161193847656e-08,
				-9.90991490596089e-18,
				-1.844503689325469e-14,
				1
			],
			"scale":[
				1,
				0.9999998807907104,
				0.9999998807907104
			],
			"translation":[
				1.4210854715202004e-14,
				0.35186567902565,
				-8.13407829980406e-09
			]
		},
		{
			"children":[
				15
			],
			"name":"\u30dc\u30fc\u30f3.008",
			"rotation":[
				-0.5150976181030273,
				1.759923051736223e-08,
				5.1481499951933074e-08,
				0.8571315407752991
			],
			"scale":[
				1,
				1.0000001192092896,
				1
			],
			"translation":[
				-1.7763568394002505e-15,
				0.8191044926643372,
				-2.980232594040899e-08
			]
		},
		{
			"children":[
				16
			],
			"name":"\u30dc\u30fc\u30f3.007",
			"rotation":[
				-0.6060835719108582,
				-0.3642289340496063,
				-0.6060835719108582,
				0.3642289638519287
			],
			"scale":[
				1,
				1,
				0.9999999403953552
			]
		},
		{
			"name":"\u30dc\u30fc\u30f3.022",
			"rotation":[
				-4.4089523389442386e-16,
				5.554815386555863e-15,
				2.244007287117728e-14,
				1
			],
			"translation":[
				0,
				0.2345772236585617,
				5.9604584379258085e-08
			]
		},
		{
			"children":[
				18
			],
			"name":"\u30dc\u30fc\u30f3.021",
			"rotation":[
				-4.408800137711529e-16,
				5.554814116006442e-15,
				-3.085063400489613e-14,
				1
			],
			"translation":[
				-1.4210854715202004e-14,
				0.320588618516922,
				5.9604584379258085e-08
			]
		},
		{
			"children":[
				19
			],
			"name":"\u30dc\u30fc\u30f3.020",
			"rotation":[
				-4.408829783864683e-16,
				2.3318383357041894e-14,
				-5.981636135710252e-15,
				1
			],
			"translation":[
				-1.4210854715202004e-14,
				0.3753235638141632,
				5.9604584379258085e-08
			]
		},
		{
			"children":[
				20
			],
			"name":"\u30dc\u30fc\u30f3.019",
			"rotation":[
				-0.5130620002746582,
				-2.632363127474946e-08,
				-1.2665239523812488e-07,
				0.8583515882492065
			],
			"translation":[
				-3.552713678800501e-15,
				0.8256246447563171,
				-1.1920928244535389e-07
			]
		},
		{
			"children":[
				21
			],
			"name":"\u30dc\u30fc\u30f3.018",
			"rotation":[
				-0.6069462895393372,
				0.3627896010875702,
				0.6069461107254028,
				0.3627896010875702
			],
			"scale":[
				0.9999998807907104,
				0.9999999403953552,
				0.9999999403953552
			]
		},
		{
			"children":[
				12,
				17,
				22
			],
			"name":"\u30a2\u30fc\u30de\u30c1\u30e5\u30a2",
			"scale":[
				0.6994481682777405,
				0.6994481682777405,
				0.6994481682777405
			],
			"translation":[
				0,
				-0.6929813623428345,
				0
			]
		},
		{
			"mesh":0,
			"name":"\u5de6\u8db3.001"
		}
	],
	"materials":[
		{
			"doubleSided":true,
			"name":"\u30de\u30c6\u30ea\u30a2\u30eb",
			"pbrMetallicRoughness":{
				"baseColorTexture":{
					"index":0
				},
				"metallicFactor":0,
				"roughnessFactor":0.5
			}
		},
		{
			"doubleSided":true,
			"name":"\u30de\u30c6\u30ea\u30a2\u30eb.001",
			"pbrMetallicRoughness":{
				"baseColorTexture":{
					"index":1
				},
				"metallicFactor":0,
				"roughnessFactor":0.5
			}
		},
		{
			"doubleSided":true,
			"name":"\u30de\u30c6\u30ea\u30a2\u30eb.002",
			"pbrMetallicRoughness":{
				"baseColorTexture":{
					"index":2
				},
				"metallicFactor":0,
				"roughnessFactor":0.5
			}
		}
	],
	"meshes":[
		{
			"name":"\u5186\u67f1.001",
			"primitives":[
				{
					"attributes":{
						"POSITION":0,
						"NORMAL":1,
						"TEXCOORD_0":2
					},
					"indices":3,
					"material":0
				},
				{
					"attributes":{
						"POSITION":4,
						"NORMAL":5,
						"TEXCOORD_0":6
					},
					"indices":7,
					"material":1
				},
				{
					"attributes":{
						"POSITION":8,
						"NORMAL":9,
						"TEXCOORD_0":10
					},
					"indices":11,
					"material":2
				}
			]
		}
	],
	"textures":[
		{
			"sampler":0,
			"source":0
		},
		{
			"sampler":0,
			"source":0
		},
		{
			"sampler":0,
			"source":0
		}
	],
	"images":[
		{
			"mimeType":"image/png",
			"name":"player",
			"uri":"player.png"
		}
	],
	"skins":[
		{
			"inverseBindMatrices":12,
			"joints":[
				12,
				5,
				4,
				3,
				2,
				1,
				0,
				11,
				10,
				9,
				8,
				7,
				6,
				17,
				16,
				15,
				14,
				13,
				22,
				21,
				20,
				19,
				18
			],
			"name":"\u30a2\u30fc\u30de\u30c1\u30e5\u30a2"
		}
	],
	"accessors":[
		{
			"bufferView":0,
			"componentType":5126,
			"count":846,
			"max":[
				0.9999999403953552,
				1,
				0.9999998807907104
			],
			"min":[
				-0.9999998807907104,
				-1,
				-0.9999998807907104
			],
			"type":"VEC3"
		},
		{
			"bufferView":1,
			"componentType":5126,
			"count":846,
			"type":"VEC3"
		},
		{
			"bufferView":2,
			"componentType":5126,
			"count":846,
			"type":"VEC2"
		},
		{
			"bufferView":3,
			"componentType":5123,
			"count":3774,
			"type":"SCALAR"
		},
		{
			"bufferView":4,
			"componentType":5126,
			"count":192,
			"max":[
				0.35911691188812256,
				1.1375958919525146,
				0.35911688208580017
			],
			"min":[
				-0.3591168522834778,
				0.9954161643981934,
				-0.35911688208580017
			],
			"type":"VEC3"
		},
		{
			"bufferView":5,
			"componentType":5126,
			"count":192,
			"type":"VEC3"
		},
		{
			"bufferView":6,
			"componentType":5126,
			"count":192,
			"type":"VEC2"
		},
		{
			"bufferView":7,
			"componentType":5123,
			"count":372,
			"type":"SCALAR"
		},
		{
			"bufferView":8,
			"componentType":5126,
			"count":2538,
			"max":[
				0.13103652000427246,
				1.6819343566894531,
				0.09921292960643768
			],
			"min":[
				-0.1042357087135315,
				0.7796692848205566,
				-1.2846800088882446
			],
			"type":"VEC3"
		},
		{
			"bufferView":9,
			"componentType":5126,
			"count":2538,
			"type":"VEC3"
		},
		{
			"bufferView":10,
			"componentType":5126,
			"count":2538,
			"type":"VEC2"
		},
		{
			"bufferView":11,
			"componentType":5123,
			"count":4212,
			"type":"SCALAR"
		},
		{
			"bufferView":12,
			"componentType":5126,
			"count":23,
			"type":"MAT4"
		}
	],
	"bufferViews":[
		{
			"buffer":0,
			"byteLength":10152,
			"byteOffset":0,
			"target":34962
		},
		{
			"buffer":0,
			"byteLength":10152,
			"byteOffset":10152,
			"target":34962
		},
		{
			"buffer":0,
			"byteLength":6768,
			"byteOffset":20304,
			"target":34962
		},
		{
			"buffer":0,
			"byteLength":7548,
			"byteOffset":27072,
			"target":34963
		},
		{
			"buffer":0,
			"byteLength":2304,
			"byteOffset":34620,
			"target":34962
		},
		{
			"buffer":0,
			"byteLength":2304,
			"byteOffset":36924,
			"target":34962
		},
		{
			"buffer":0,
			"byteLength":1536,
			"byteOffset":39228,
			"target":34962
		},
		{
			"buffer":0,
			"byteLength":744,
			"byteOffset":40764,
			"target":34963
		},
		{
			"buffer":0,
			"byteLength":30456,
			"byteOffset":41508,
			"target":34962
		},
		{
			"buffer":0,
			"byteLength":30456,
			"byteOffset":71964,
			"target":34962
		},
		{
			"buffer":0,
			"byteLength":20304,
			"byteOffset":102420,
			"target":34962
		},
		{
			"buffer":0,
			"byteLength":8424,
			"byteOffset":122724,
			"target":34963
		},
		{
			"buffer":0,
			"byteLength":1472,
			"byteOffset":131148
		}
	],
	"samplers":[
		{
			"magFilter":9729,
			"minFilter":9987
		}
	],
	"buffers":[
		{
			"byteLength":132620,
			"uri":"Player.bin"
		}
	]
}
