{
	"asset":{
		"generator":"Khronos glTF Blender I/O v4.1.63",
		"version":"2.0"
	},
	"scene":0,
	"scenes":[
		{
			"name":"Scene",
			"nodes":[
				0
			]
		}
	],
	"nodes":[
		{
			"mesh":0,
			"name":"Cube"
		}
	],
	"materials":[
		{
			"doubleSided":true,
			"name":"Material.001",
			"pbrMetallicRoughness":{
				"baseColorTexture":{
					"index":0
				},
				"metallicFactor":0,
				"roughnessFactor":0.5
			}
		}
	],
	"meshes":[
		{
			"name":"Cube.001",
			"primitives":[
				{
					"attributes":{
						"POSITION":0,
						"NORMAL":1,
						"TEXCOORD_0":2,
						"TEXCOORD_1":3
					},
					"indices":4,
					"material":0
				}
			]
		}
	],
	"textures":[
		{
			"sampler":0,
			"source":0
		}
	],
	"images":[
		{
			"mimeType":"image/png",
			"name":"Floor_Silver",
			"uri":"Floor_Silver.png"
		}
	],
	"accessors":[
		{
			"bufferView":0,
			"componentType":5126,
			"count":1303,
			"max":[
				1.717510461807251,
				1.2808996438980103,
				1.0000479221343994
			],
			"min":[
				-1.717510461807251,
				-0.34648942947387695,
				-1.0000001192092896
			],
			"type":"VEC3"
		},
		{
			"bufferView":1,
			"componentType":5126,
			"count":1303,
			"type":"VEC3"
		},
		{
			"bufferView":2,
			"componentType":5126,
			"count":1303,
			"type":"VEC2"
		},
		{
			"bufferView":3,
			"componentType":5126,
			"count":1303,
			"type":"VEC2"
		},
		{
			"bufferView":4,
			"componentType":5123,
			"count":3816,
			"type":"SCALAR"
		}
	],
	"bufferViews":[
		{
			"buffer":0,
			"byteLength":15636,
			"byteOffset":0,
			"target":34962
		},
		{
			"buffer":0,
			"byteLength":15636,
			"byteOffset":15636,
			"target":34962
		},
		{
			"buffer":0,
			"byteLength":10424,
			"byteOffset":31272,
			"target":34962
		},
		{
			"buffer":0,
			"byteLength":10424,
			"byteOffset":41696,
			"target":34962
		},
		{
			"buffer":0,
			"byteLength":7632,
			"byteOffset":52120,
			"target":34963
		}
	],
	"samplers":[
		{
			"magFilter":9729,
			"minFilter":9987
		}
	],
	"buffers":[
		{
			"byteLength":59752,
			"uri":"FloorSilver.bin"
		}
	]
}
