{
	"asset":{
		"generator":"Khronos glTF Blender I/O v4.1.63",
		"version":"2.0"
	},
	"scene":0,
	"scenes":[
		{
			"name":"Scene",
			"nodes":[
				0
			]
		}
	],
	"nodes":[
		{
			"mesh":0,
			"name":"Bomb03"
		}
	],
	"materials":[
		{
			"doubleSided":true,
			"name":"\u30de\u30c6\u30ea\u30a2\u30eb.001",
			"pbrMetallicRoughness":{
				"baseColorTexture":{
					"index":0
				},
				"metallicFactor":0,
				"roughnessFactor":0.5
			}
		}
	],
	"meshes":[
		{
			"name":"\u5186\u67f1.002",
			"primitives":[
				{
					"attributes":{
						"POSITION":0,
						"NORMAL":1,
						"TEXCOORD_0":2,
						"TEXCOORD_1":3
					},
					"indices":4,
					"material":0
				}
			]
		}
	],
	"textures":[
		{
			"sampler":0,
			"source":0
		}
	],
	"images":[
		{
			"mimeType":"image/png",
			"name":"Bomb",
			"uri":"Bomb.png"
		}
	],
	"accessors":[
		{
			"bufferView":0,
			"componentType":5126,
			"count":4728,
			"max":[
				0.5843942165374756,
				1.5586605072021484,
				0.5843942165374756
			],
			"min":[
				-0.5843942165374756,
				-1.3742363452911377,
				-0.5843942165374756
			],
			"type":"VEC3"
		},
		{
			"bufferView":1,
			"componentType":5126,
			"count":4728,
			"type":"VEC3"
		},
		{
			"bufferView":2,
			"componentType":5126,
			"count":4728,
			"type":"VEC2"
		},
		{
			"bufferView":3,
			"componentType":5126,
			"count":4728,
			"type":"VEC2"
		},
		{
			"bufferView":4,
			"componentType":5123,
			"count":8046,
			"type":"SCALAR"
		}
	],
	"bufferViews":[
		{
			"buffer":0,
			"byteLength":56736,
			"byteOffset":0,
			"target":34962
		},
		{
			"buffer":0,
			"byteLength":56736,
			"byteOffset":56736,
			"target":34962
		},
		{
			"buffer":0,
			"byteLength":37824,
			"byteOffset":113472,
			"target":34962
		},
		{
			"buffer":0,
			"byteLength":37824,
			"byteOffset":151296,
			"target":34962
		},
		{
			"buffer":0,
			"byteLength":16092,
			"byteOffset":189120,
			"target":34963
		}
	],
	"samplers":[
		{
			"magFilter":9729,
			"minFilter":9987
		}
	],
	"buffers":[
		{
			"byteLength":205212,
			"uri":"Bomb.bin"
		}
	]
}
