# Blender 4.1.1
# www.blender.org
mtllib whiteField.mtl
o フロア.008
v -7.755662 -0.647448 0.655848
v -3.901806 -0.647448 1.793963
v 0.000000 -0.647448 2.178260
v 3.901807 -0.647448 1.793962
v 7.653669 -0.647448 0.655847
v -6.528868 -0.647448 -3.196468
v -3.123435 -0.647448 -2.119172
v -0.000000 -0.647448 -1.811540
v 3.123435 -0.647448 -2.119172
v 6.126839 -0.647448 -3.030245
v -7.755662 -0.185610 0.655848
v -3.901806 -0.185610 1.793963
v 0.000000 -0.185610 2.178260
v 3.901807 -0.185610 1.793962
v 7.653669 -0.185610 0.655847
v -6.528868 -0.185610 -3.196468
v -3.123435 -0.185610 -2.119172
v -0.000000 -0.185610 -1.811540
v 3.123435 -0.185610 -2.119172
v 6.126839 -0.185610 -3.030245
vn -0.0000 1.0000 -0.0000
vn -0.0000 -1.0000 -0.0000
vn 0.0980 -0.0000 -0.9952
vn -0.0980 -0.0000 -0.9952
vn -0.2903 -0.0000 -0.9569
vn -0.3016 -0.0000 0.9534
vn -0.0980 -0.0000 0.9952
vn 0.0980 -0.0000 0.9952
vn 0.2903 -0.0000 0.9569
vn 0.2832 -0.0000 -0.9591
s 0
usemtl マテリアル.010
f 1//1 7//1 6//1
f 2//1 8//1 7//1
f 4//1 8//1 3//1
f 4//1 10//1 9//1
f 11//2 17//2 12//2
f 12//2 18//2 13//2
f 18//2 14//2 13//2
f 14//2 20//2 15//2
f 2//3 13//3 3//3
f 3//4 14//4 4//4
f 4//5 15//5 5//5
f 7//6 16//6 6//6
f 8//7 17//7 7//7
f 9//8 18//8 8//8
f 10//9 19//9 9//9
f 1//10 12//10 2//10
f 1//1 2//1 7//1
f 2//1 3//1 8//1
f 4//1 9//1 8//1
f 4//1 5//1 10//1
f 11//2 16//2 17//2
f 12//2 17//2 18//2
f 18//2 19//2 14//2
f 14//2 19//2 20//2
f 2//3 12//3 13//3
f 3//4 13//4 14//4
f 4//5 14//5 15//5
f 7//6 17//6 16//6
f 8//7 18//7 17//7
f 9//8 19//8 18//8
f 10//9 20//9 19//9
f 1//10 11//10 12//10
