# Blender 4.1.1
# www.blender.org
mtllib DeadLine.mtl
o Cube
v -0.634124 3.798835 -0.358763
v -0.634124 -3.798835 -0.358763
v 0.634124 3.798835 -0.358763
v 0.634124 -3.798835 -0.358763
v -0.634124 3.798835 0.398763
v -0.634124 -3.798835 0.398763
v 0.634124 3.798835 0.398763
v 0.634124 -3.798835 0.398763
v 0.634124 -2.322604 0.398763
v 0.634124 1.341517 0.398763
v -0.634124 2.271779 0.398763
v -0.634124 -1.504982 0.398763
v -0.634124 3.093543 -0.358763
v -0.634124 -0.547770 -0.358763
v 0.634124 0.470526 -0.358763
v 0.634124 -3.131975 -0.358763
v 0.634124 3.081694 0.398763
v 0.634124 -0.550312 0.398763
v -0.634124 1.336720 -0.358763
v 0.634124 -1.518759 -0.358763
v -0.634124 -3.122886 0.398763
v 0.634124 2.279967 -0.358763
v -0.634124 0.471646 0.398763
v -0.634124 -2.333299 -0.358763
v 0.634124 -1.507600 0.398763
v 0.634124 2.270067 0.398763
v -0.634124 0.485557 -0.358763
v -0.634124 3.105533 0.398763
v 0.634124 -2.331078 -0.358763
v 0.634124 1.328699 -0.358763
v -0.634124 -0.535006 0.398763
v -0.634124 -3.131092 -0.358763
v -0.634124 1.345002 0.398763
v 0.634124 -0.553456 -0.358763
v 0.634124 0.508627 0.398763
v -0.634124 -1.534112 -0.358763
v -0.634124 -2.330925 0.398763
v 0.634124 3.096620 -0.358763
v -0.634124 2.273192 -0.358763
v 0.634124 -3.135366 0.398763
vn -0.0000 1.0000 -0.0000
vn 1.0000 -0.0000 -0.0000
vn -0.0000 -0.0000 1.0000
vn -0.0000 -1.0000 -0.0000
vn -0.0000 -0.0000 -1.0000
vn -1.0000 -0.0000 -0.0000
vt 0.355582 0.743618
vt 0.243514 0.855685
vt 0.243514 0.743618
vt 0.131447 0.855685
vt 0.141233 0.967753
vt 0.131447 0.967753
vt 0.687584 0.519482
vt 0.697554 0.631550
vt 0.687584 0.631550
vt 0.131447 0.743618
vt 0.019379 0.855685
vt 0.019379 0.743618
vt 0.687584 0.743618
vt 0.697420 0.855685
vt 0.687584 0.855685
vt 0.697433 0.743618
vt 0.141283 0.855685
vt 0.141296 0.743618
vt 0.153096 0.855685
vt 0.194421 0.855685
vt 0.194643 0.743618
vt 0.207079 0.855685
vt 0.233111 0.743618
vt 0.165282 0.631550
vt 0.165243 0.519482
vt 0.179589 0.631550
vt 0.220990 0.631550
vt 0.220965 0.519482
vt 0.233288 0.631550
vt 0.179401 0.743618
vt 0.153221 0.967753
vt 0.165243 0.967753
vt 0.207268 0.967753
vt 0.220965 0.967753
vt 0.221111 0.855685
vt 0.221011 0.743618
vt 0.233157 0.855685
vt 0.194437 0.631550
vt 0.194983 0.519482
vt 0.207320 0.631550
vt 0.232936 0.967753
vt 0.243514 0.967753
vt 0.243514 0.631550
vt 0.232936 0.519482
vt 0.243514 0.519482
vt 0.141417 0.631550
vt 0.141233 0.519482
vt 0.153099 0.631550
vt 0.207198 0.743618
vt 0.179363 0.967753
vt 0.179317 0.855685
vt 0.194983 0.967753
vt 0.153064 0.743618
vt 0.164852 0.743618
vt 0.165078 0.855685
vt 0.763216 0.855685
vt 0.763334 0.743618
vt 0.777248 0.855685
vt 0.735726 0.631550
vt 0.735500 0.519482
vt 0.750574 0.631550
vt 0.789425 0.631550
vt 0.789073 0.519482
vt 0.799651 0.631550
vt 0.750780 0.743618
vt 0.799651 0.743618
vt 0.721380 0.967753
vt 0.721215 0.855685
vt 0.735500 0.967753
vt 0.131447 0.631550
vt 0.777102 0.967753
vt 0.789073 0.967753
vt 0.709233 0.855685
vt 0.709201 0.743618
vt 0.799651 0.967753
vt 0.789294 0.855685
vt 0.799651 0.855685
vt 0.697370 0.967753
vt 0.709358 0.967753
vt 0.709236 0.631550
vt 0.709358 0.519482
vt 0.721419 0.631550
vt 0.777148 0.743618
vt 0.777127 0.631550
vt 0.789248 0.743618
vt 0.751120 0.967753
vt 0.750558 0.855685
vt 0.763405 0.967753
vt 0.720989 0.743618
vt 0.735538 0.743618
vt 0.735454 0.855685
vt 0.763457 0.631550
vt 0.763405 0.519482
vt 0.355582 0.855685
vt 0.153221 0.519482
vt 0.207268 0.519482
vt 0.179363 0.519482
vt 0.131447 0.519482
vt 0.721380 0.519482
vt 0.777102 0.519482
vt 0.697370 0.519482
vt 0.751120 0.519482
s 0
usemtl Material
f 5/1/1 3/2/1 1/3/1
f 4/4/2 40/5/2 8/6/2
f 8/7/3 21/8/3 6/9/3
f 2/10/4 8/11/4 6/12/4
f 2/13/5 16/14/5 4/15/5
f 21/8/6 32/16/6 6/9/6
f 16/17/5 32/18/5 29/19/5
f 15/20/5 27/21/5 30/22/5
f 3/2/5 13/23/5 1/3/5
f 12/24/3 25/25/3 31/26/3
f 11/27/3 26/28/3 28/29/3
f 14/30/6 31/26/6 27/21/6
f 13/23/6 28/29/6 1/3/6
f 9/31/2 29/19/2 25/32/2
f 10/33/2 30/22/2 26/34/2
f 22/35/5 39/36/5 38/37/5
f 23/38/3 35/39/3 33/40/3
f 17/41/2 38/37/2 7/42/2
f 5/43/3 17/44/3 7/45/3
f 21/46/3 40/47/3 37/48/3
f 19/49/6 33/40/6 39/36/6
f 18/50/2 34/51/2 35/52/2
f 24/53/6 37/48/6 36/54/6
f 20/55/5 36/54/5 34/51/5
f 30/56/5 19/57/5 22/58/5
f 31/59/3 18/60/3 23/61/3
f 28/62/3 17/63/3 5/64/3
f 27/65/6 23/61/6 19/57/6
f 1/66/6 28/62/6 5/64/6
f 25/67/2 20/68/2 18/69/2
f 32/18/6 2/10/6 6/70/6
f 26/71/2 22/58/2 17/72/2
f 29/73/5 24/74/5 20/68/5
f 7/75/2 38/76/2 3/77/2
f 40/78/2 16/14/2 9/79/2
f 37/80/3 9/81/3 12/82/3
f 39/83/6 11/84/6 13/85/6
f 35/86/2 15/87/2 10/88/2
f 36/89/6 12/82/6 14/90/6
f 34/91/5 14/90/5 15/87/5
f 38/76/5 13/85/5 3/77/5
f 33/92/3 10/93/3 11/84/3
f 5/1/1 7/94/1 3/2/1
f 2/10/4 4/4/4 8/11/4
f 21/8/6 24/74/6 32/16/6
f 16/17/5 2/10/5 32/18/5
f 15/20/5 14/30/5 27/21/5
f 12/24/3 9/95/3 25/25/3
f 11/27/3 10/96/3 26/28/3
f 14/30/6 12/24/6 31/26/6
f 13/23/6 11/27/6 28/29/6
f 9/31/2 16/17/2 29/19/2
f 10/33/2 15/20/2 30/22/2
f 22/35/5 19/49/5 39/36/5
f 23/38/3 18/97/3 35/39/3
f 17/41/2 22/35/2 38/37/2
f 21/46/3 8/98/3 40/47/3
f 19/49/6 23/38/6 33/40/6
f 18/50/2 20/55/2 34/51/2
f 24/53/6 21/46/6 37/48/6
f 20/55/5 24/53/5 36/54/5
f 30/56/5 27/65/5 19/57/5
f 31/59/3 25/99/3 18/60/3
f 28/62/3 26/100/3 17/63/3
f 27/65/6 31/59/6 23/61/6
f 25/67/2 29/73/2 20/68/2
f 26/71/2 30/56/2 22/58/2
f 29/73/5 32/16/5 24/74/5
f 40/78/2 4/15/2 16/14/2
f 37/80/3 40/101/3 9/81/3
f 39/83/6 33/92/6 11/84/6
f 35/86/2 34/91/2 15/87/2
f 36/89/6 37/80/6 12/82/6
f 34/91/5 36/89/5 14/90/5
f 38/76/5 39/83/5 13/85/5
f 33/92/3 35/102/3 10/93/3
