{
	"asset":{
		"generator":"Khronos glTF Blender I/O v4.1.63",
		"version":"2.0"
	},
	"scene":0,
	"scenes":[
		{
			"name":"Scene",
			"nodes":[
				0
			]
		}
	],
	"nodes":[
		{
			"mesh":0,
			"name":"Cube"
		}
	],
	"materials":[
		{
			"doubleSided":true,
			"name":"Material",
			"pbrMetallicRoughness":{
				"baseColorTexture":{
					"index":0
				},
				"metallicFactor":0,
				"roughnessFactor":0.5
			}
		}
	],
	"meshes":[
		{
			"name":"Cube",
			"primitives":[
				{
					"attributes":{
						"POSITION":0,
						"NORMAL":1,
						"TEXCOORD_0":2
					},
					"indices":3,
					"material":0
				}
			]
		}
	],
	"textures":[
		{
			"sampler":0,
			"source":0
		}
	],
	"images":[
		{
			"mimeType":"image/png",
			"name":"SkullBlock",
			"uri":"SkullBlock.png"
		}
	],
	"accessors":[
		{
			"bufferView":0,
			"componentType":5126,
			"count":2036,
			"max":[
				1,
				1,
				1
			],
			"min":[
				-1,
				-1,
				-1
			],
			"type":"VEC3"
		},
		{
			"bufferView":1,
			"componentType":5126,
			"count":2036,
			"type":"VEC3"
		},
		{
			"bufferView":2,
			"componentType":5126,
			"count":2036,
			"type":"VEC2"
		},
		{
			"bufferView":3,
			"componentType":5123,
			"count":3720,
			"type":"SCALAR"
		}
	],
	"bufferViews":[
		{
			"buffer":0,
			"byteLength":24432,
			"byteOffset":0,
			"target":34962
		},
		{
			"buffer":0,
			"byteLength":24432,
			"byteOffset":24432,
			"target":34962
		},
		{
			"buffer":0,
			"byteLength":16288,
			"byteOffset":48864,
			"target":34962
		},
		{
			"buffer":0,
			"byteLength":7440,
			"byteOffset":65152,
			"target":34963
		}
	],
	"samplers":[
		{
			"magFilter":9729,
			"minFilter":9987
		}
	],
	"buffers":[
		{
			"byteLength":72592,
			"uri":"SkullBlock.bin"
		}
	]
}
